<svg width="40" height="40" viewBox="0 0 40 40" fill="none" xmlns="http://www.w3.org/2000/svg">
<path d="M14.3125 0C17.1484 1.99219 19 5.28125 19 9V26H39C39.5547 26 40 25.5547 40 25V9C40 4.03906 35.9648 0 31 0H14.3125ZM8.5 0.03125C3.76953 0.292969 0 4.20703 0 9V25C0 25.5547 0.449219 26 1 26H17V9C17 4.20703 13.2305 0.292969 8.5 0.03125ZM25 7C25.7383 7 26.3711 7.40625 26.7188 8H36V14H32V10H26.7188C26.3711 10.5938 25.7383 11 25 11C23.8945 11 23 10.1055 23 9C23 7.89453 23.8945 7 25 7ZM6 10H11C11.5508 10 12 10.4492 12 11C12 11.5508 11.5508 12 11 12H6C5.44922 12 5 11.5508 5 11C5 10.4492 5.44922 10 6 10ZM20 28L20.5 31L21 34L22.0238 38.6072C22.2558 39.6513 23.7442 39.6513 23.9762 38.6072L25 34L25.5 31L26 28H20Z" fill="#002641"/>
</svg>
